<svg version="1.1" xmlns="http://www.w3.org/2000/svg" xmlns:xlink="http://www.w3.org/1999/xlink" width="236.88891" height="316.82916" viewBox="0,0,236.88891,316.82916"><g transform="translate(-121.55555,-21.58542)"><g data-paper-data="{&quot;isPaintingLayer&quot;:true}" fill-rule="nonzero" stroke="none" stroke-width="1" stroke-linecap="butt" stroke-linejoin="miter" stroke-miterlimit="10" stroke-dasharray="" stroke-dashoffset="0" style="mix-blend-mode: normal"><path d="M248.21735,21.66806c0.95677,-0.03439 0.95677,-0.03439 1.93286,-0.06947c3.02999,-0.0325 4.66037,-0.04497 7.20036,1.71827c1.4802,2.2803 1.27283,4.1012 1.16404,6.75574c-0.13312,13.04594 5.45451,23.37664 13.98081,32.87404c2.66157,2.54444 5.40593,3.81226 8.82137,5.15944c17.68193,6.97625 28.34768,25.30445 35.59039,41.85752c11.52062,27.34228 14.96463,59.06994 9.56318,88.21835c1.82175,0.62483 2.84846,0.88635 4.71482,0.31494c3.48706,-1.80913 6.09589,-3.64692 8.72257,-6.63841c0.85589,-0.88035 0.85589,-0.88035 1.72908,-1.77848c1.93493,-2.93576 2.44513,-5.85478 3.01353,-9.2876c-0.85589,-0.12227 -0.85589,-0.12227 -1.72908,-0.24701c-3.08017,-0.75293 -5.23885,-1.59523 -7.12626,-4.25476c-2.04936,-3.68019 -3.1498,-7.12166 -2.21075,-11.30692c1.79551,-4.09878 3.824,-6.71679 7.90434,-8.69478c3.82865,-0.67288 7.77463,-0.91133 11.27604,0.95408c3.04567,2.52739 5.06732,4.98153 5.58862,8.99428c0.06778,4.83983 -0.08838,7.76829 -3.42727,11.39337c-0.78253,0.26084 -1.56506,0.52169 -2.3713,0.79043c0.04585,0.53595 0.0917,1.0719 0.13894,1.6241c0.39235,8.09355 -2.29817,13.07447 -7.45046,19.17421c-6.30151,6.60207 -12.16288,8.30815 -21.14412,9.2382c-0.15844,0.50844 -0.31688,1.01688 -0.48013,1.54073c-3.30158,10.49617 -6.81078,20.45424 -12.16682,30.07665c-0.50844,0.93761 -1.01687,1.87522 -1.52529,2.81283c-8.02011,14.57412 -17.79659,27.86956 -29.30165,39.87062c-0.4454,0.47112 -0.89079,0.94225 -1.34968,1.42764c-7.94719,8.3749 -16.2929,15.67049 -26.31552,21.49495c0.13042,0.79883 0.26084,1.59767 0.39522,2.42071c0.66999,5.21838 0.45675,10.50833 0.39522,15.75929c0.44017,-0.02751 0.88035,-0.05502 1.33386,-0.08337c5.71685,-0.20279 9.84791,0.72696 14.42543,4.23315c1.95387,2.60516 2.23161,4.49206 2.42071,7.70674c-4.52492,2.96433 -8.89232,2.72542 -14.17842,2.66772c-0.83704,0.00917 -1.67408,0.01834 -2.53649,0.02779c-9.87261,-0.03695 -9.87261,-0.03695 -13.3216,-3.48594c0.38065,-5.13872 0.38065,-5.13872 1.99693,-6.69399c1.5004,-1.55906 1.45187,-2.33886 1.42417,-4.47089c-0.00408,-0.62358 -0.00815,-1.24716 -0.01235,-1.88963c-0.0163,-0.64803 -0.03261,-1.29607 -0.0494,-1.96374c-0.00611,-0.97205 -0.00611,-0.97205 -0.01235,-1.96374c-0.03601,-2.75504 -0.0966,-4.8842 -0.97569,-7.52148c-0.51965,0.28734 -1.0393,0.57467 -1.57469,0.87071c-9.43046,4.98358 -19.41661,8.1281 -29.79567,10.49178c-0.57684,0.13259 -1.15367,0.26517 -1.74799,0.40178c-3.52492,0.75517 -6.75155,1.00549 -10.35554,0.88268c1.00373,3.39831 1.00373,3.39831 2.86532,6.37288c1.08685,1.53147 1.08685,1.53147 1.43266,3.55695c-0.34582,1.92668 -0.34582,1.92668 -1.72908,3.30994c-4.46728,2.48182 -9.40558,1.92374 -14.37603,1.92668c-0.85742,0.00968 -1.71484,0.01936 -2.59824,0.02933c-0.82889,0.00153 -1.65778,0.00306 -2.51179,0.00463c-0.75394,0.00325 -1.50787,0.0065 -2.28466,0.00984c-2.33708,-0.2097 -4.01559,-0.68296 -6.0921,-1.77288c-0.98233,-2.76281 -1.03657,-4.15463 0.0988,-6.8669c1.62581,-2.00516 3.20887,-2.93328 5.43424,-4.19918c-0.43661,-0.03133 -0.87321,-0.06266 -1.32305,-0.09494c-22.40038,-1.67956 -22.40038,-1.67956 -32.31981,-6.82136c-3.69052,-1.89257 -6.22381,-1.75795 -10.32505,-1.38326c-3.03206,0.12968 -3.03206,0.12968 -5.82945,-0.39522c-3.23602,-3.02324 -5.11157,-6.31607 -7.11391,-10.27565c-0.44527,-0.8457 -0.89054,-1.69141 -1.3493,-2.56274c-1.21883,-2.59967 -1.43626,-4.08189 -1.02201,-6.92248c2.49538,-4.99075 6.92063,-8.99259 11.06608,-12.64695c0.52169,0 1.04337,0 1.58087,0c0.14672,-0.94556 0.29345,-1.89111 0.44462,-2.86532c4.01027,-17.52434 18.79181,-29.65007 32.15462,-40.38317c2.85386,-2.36474 5.57268,-4.85846 8.28528,-7.38273c2.18087,-2.02876 4.39746,-3.9837 6.68975,-5.88484c7.75109,-6.7742 14.43884,-16.34861 18.82222,-25.68912c-0.65007,-0.15488 -1.30014,-0.30975 -1.96991,-0.46932c-8.88412,-2.38004 -15.20537,-6.41548 -20.01713,-14.37603c-2.76376,-5.18091 -3.67493,-9.30206 -3.30686,-15.19116c-0.78253,-0.26084 -1.56506,-0.52169 -2.3713,-0.79043c-2.4368,-3.26808 -3.74491,-6.9765 -3.5199,-11.05064c0.86857,-3.87112 3.14781,-6.82564 5.99001,-9.50065c4.62999,-1.61043 9.24991,-1.60228 13.6844,0.49402c2.86426,2.65468 4.68838,5.12334 5.92826,8.84298c0.07877,4.01712 -0.81452,7.75806 -3.3717,10.93949c-2.61101,2.37052 -4.96377,3.18856 -8.43542,3.43654c1.28216,6.39743 3.82494,10.65681 8.69478,15.01825c3.73917,2.44053 6.13492,3.38066 10.62455,2.82519c3.0136,-1.33313 3.24494,-1.47091 4.39679,-4.30725c0.43701,-1.34203 0.84573,-2.69346 1.23197,-4.05098c0.33834,-1.10683 0.33834,-1.10683 0.68353,-2.23603c6.262,-21.06009 9.74778,-42.72839 11.91402,-64.55568c1.30951,-12.84458 4.09072,-25.33695 13.33858,-34.92732c2.22582,-2.40457 2.81719,-3.13742 3.40875,-6.47168c-0.16651,-1.58456 -0.16651,-1.58456 -0.54342,-3.26054c-0.17729,-1.04235 -0.17729,-1.04235 -0.35817,-2.10577c-2.07059,-9.63623 -9.05702,-14.53641 -16.78438,-19.92759c-3.59148,-3.30028 -6.47006,-6.78501 -6.71869,-11.75771c1.97946,-5.41746 7.08483,-8.60321 12.00472,-11.26369c7.56673,-3.30754 14.64089,-5.68083 22.9226,-5.78005z" fill="#fdbd0f"/><path d="M270.30628,76.45813c2.50991,1.21678 3.62762,3.3687 5.03284,5.67816c0.30848,0.49685 0.61696,0.9937 0.93478,1.50561c6.94198,11.36501 11.71426,23.11036 13.83646,36.28704c-0.49723,-0.10495 -0.99447,-0.2099 -1.50677,-0.31803c-4.23383,-0.87355 -8.42455,-1.57589 -12.72105,-2.05328c0,1.30422 0,2.60843 0,3.95217c0.74992,0.19563 1.49985,0.39127 2.2725,0.59283c4.3688,1.24185 8.6825,2.90859 12.74575,4.94022c0.32729,1.63336 0.32729,1.63336 0.49402,3.60636c0.08865,0.97969 0.08865,0.97969 0.17908,1.97917c0.03872,0.50437 0.07744,1.00873 0.11733,1.52838c-0.67402,0.08865 -0.67402,0.08865 -1.36165,0.17908c-4.88875,0.83248 -8.00387,2.39036 -11.2853,6.14439c-3.18349,5.1997 -3.78849,10.6015 -3.16174,16.59912c1.47069,5.44314 3.8643,10.4456 8.64538,13.6844c2.099,0.69967 4.18404,1.03538 6.37288,1.33386c-0.93583,20.30758 -11.97491,44.631 -23.71303,60.86345c-0.55022,0.77234 -1.10043,1.54468 -1.66732,2.34043c-3.88369,5.31664 -8.0293,10.2757 -12.5605,15.04913c-0.36223,0.38795 -0.72445,0.77591 -1.09765,1.17562c-9.59209,10.22265 -20.61133,18.90237 -32.89103,25.69915c-0.64587,0.35751 -1.29174,0.71503 -1.95717,1.08337c-19.65188,10.76666 -44.5319,23.39413 -67.60105,22.62966c-0.40349,-0.93078 -0.40349,-0.93078 -0.81514,-1.88037c-2.5017,-5.42257 -4.99458,-10.00837 -10.25095,-13.13788c-2.09313,-0.5528 -2.09313,-0.5528 -3.95217,-0.79043c0.95859,-14.05935 11.50647,-25.8285 21.60109,-34.78529c2.31068,-2.00294 4.65429,-3.96533 7.007,-5.91861c4.20991,-3.50465 8.35928,-7.08206 12.4945,-10.67434c0.42629,-0.36987 0.85258,-0.73974 1.29179,-1.12081c9.77754,-8.54226 18.44155,-18.64762 24.00211,-30.49657c-0.65007,-0.15488 -1.30014,-0.30975 -1.96991,-0.46932c-8.88412,-2.38004 -15.20537,-6.41548 -20.01713,-14.37603c-2.76376,-5.18091 -3.67493,-9.30206 -3.30686,-15.19116c-0.78253,-0.26084 -1.56506,-0.52169 -2.3713,-0.79043c-2.4368,-3.26808 -3.74491,-6.9765 -3.5199,-11.05064c0.86857,-3.87112 3.14781,-6.82564 5.99001,-9.50065c4.62999,-1.61043 9.24991,-1.60228 13.6844,0.49402c2.86426,2.65468 4.68838,5.12334 5.92826,8.84298c0.07877,4.01712 -0.81452,7.75806 -3.3717,10.93949c-2.61101,2.37052 -4.96377,3.18856 -8.43542,3.43654c1.28216,6.39743 3.82494,10.65681 8.69478,15.01825c3.73917,2.44053 6.13492,3.38066 10.62455,2.82519c3.0136,-1.33313 3.24494,-1.47091 4.39679,-4.30725c0.43701,-1.34203 0.84573,-2.69346 1.23197,-4.05098c0.33834,-1.10683 0.33834,-1.10683 0.68353,-2.23603c6.262,-21.06009 9.74778,-42.72839 11.91402,-64.55568c1.45924,-14.31323 5.16466,-26.96329 15.41347,-37.54563c4.545,1.48206 4.545,1.48206 6.32348,2.3713c7.99456,0.68714 16.23116,-0.33682 23.36722,-4.14978c2.71712,-1.38326 2.71712,-1.38326 4.25476,-1.38017z" fill="#fedf00"/><path d="M248.21735,21.66806c0.63784,-0.02293 1.27569,-0.04585 1.93286,-0.06947c3.02999,-0.0325 4.66037,-0.04497 7.20036,1.71827c1.4802,2.2803 1.27283,4.1012 1.16404,6.75574c-0.15499,15.18929 7.70543,25.99593 17.36794,36.89723c-2.87584,6.82514 -5.58499,9.8314 -12.05412,13.19037c-6.75709,2.36498 -16.05927,4.59385 -22.972,1.90816c-1.53147,-0.87071 -1.53147,-0.87071 -3.70516,-2.45158c0.07336,-1.4917 0.07336,-1.4917 0.14821,-3.01353c-0.04344,-6.90648 -1.58672,-12.63626 -6.44698,-17.66127c-3.41178,-3.09685 -7.0679,-5.83814 -10.84377,-8.47247c-3.59148,-3.30028 -6.47006,-6.78501 -6.71869,-11.75771c1.97946,-5.41746 7.08483,-8.60321 12.00472,-11.26369c7.56673,-3.30754 14.64089,-5.68083 22.9226,-5.78005z" fill="#8aab3e"/><path d="M297.22428,168.14544c-0.61335,33.17678 -18.81153,66.12645 -41.73555,89.22028c-13.29278,12.64929 -29.19742,22.61183 -46.14431,29.54287c-1.35998,0.55982 -2.71066,1.14205 -4.06063,1.7256c-13.21434,5.6874 -13.21434,5.6874 -19.51076,5.19031c1.66478,-2.49718 2.09139,-2.7866 4.72717,-3.82558c0.65033,-0.26422 1.30065,-0.52844 1.97068,-0.80066c0.70789,-0.28294 1.41579,-0.56588 2.14513,-0.8574c14.62289,-6.08189 28.43473,-13.21832 40.95438,-22.972c0.45342,-0.35306 0.90684,-0.70611 1.374,-1.06987c3.07275,-2.42869 6.01505,-4.97844 8.90165,-7.62491c0.47049,-0.43049 0.94097,-0.86099 1.42572,-1.30453c11.6526,-10.80944 20.58223,-23.31172 27.82036,-37.42676c0.4012,-0.77336 0.4012,-0.77336 0.8105,-1.56234c7.17171,-13.98689 12.07114,-28.8581 14.99818,-44.28285c-1.56506,0 -3.13012,0 -4.74261,0c0,-0.26084 0,-0.52169 0,-0.79043c0.54308,-0.09578 1.08617,-0.19156 1.64571,-0.29024c0.71222,-0.13246 1.42445,-0.26492 2.15826,-0.40139c0.70611,-0.12838 1.41222,-0.25677 2.13973,-0.38904c1.83533,-0.46822 3.36898,-2.08107 5.12239,-2.08107z" fill="#f9a718"/><path d="M350.97382,156.28892c3.40685,1.81503 5.69298,4.31255 7.11391,7.90434c0.51658,3.97644 0.77801,8.07047 -1.43266,11.5601c-1.72908,1.87728 -1.72908,1.87728 -4.10038,2.66772c0.04585,0.53595 0.0917,1.0719 0.13894,1.6241c0.39235,8.09355 -2.29817,13.07447 -7.45046,19.17421c-4.78678,5.08245 -10.20936,8.44654 -17.29075,8.69478c-5.61369,-0.05567 -10.57913,-2.31376 -14.91945,-5.78005c0.26084,-1.30422 0.52169,-2.60843 0.79043,-3.95217c2.59813,-0.63198 3.72313,-0.86678 6.32348,0c5.29699,0.91814 9.75322,1.45775 14.48409,-1.39252c1.9946,-1.47386 3.64135,-3.06839 5.27677,-4.93095c0.57059,-0.5869 1.14119,-1.1738 1.72908,-1.77848c1.93493,-2.93576 2.44513,-5.85478 3.01353,-9.2876c-0.57059,-0.08151 -1.14119,-0.16303 -1.72908,-0.24701c-3.08017,-0.75293 -5.23885,-1.59523 -7.12626,-4.25476c-2.04936,-3.68019 -3.1498,-7.12166 -2.21075,-11.30692c3.44341,-7.86058 9.03702,-10.07582 17.38956,-8.69478z" fill="#010000"/><path d="M189.28058,151.2499c2.86426,2.65468 4.68838,5.12334 5.92826,8.84298c0.07877,4.01712 -0.81452,7.75806 -3.3717,10.93949c-2.61101,2.37052 -4.96377,3.18856 -8.43542,3.43654c1.28216,6.39743 3.82494,10.65681 8.69478,15.01825c4.75238,3.10897 7.83498,3.35996 13.43738,2.3713c-0.42952,3.60797 -1.41854,6.30199 -3.16174,9.48521c-7.19556,0.61239 -12.65688,-2.66315 -18.12133,-7.12626c-4.58922,-4.39044 -8.43881,-10.53114 -8.89239,-16.98199c-0.00807,-1.7207 0.03163,-3.42082 0.13894,-5.13782c-0.78253,-0.26084 -1.56506,-0.52169 -2.3713,-0.79043c-2.4368,-3.26808 -3.74491,-6.9765 -3.5199,-11.05064c0.86857,-3.87112 3.14781,-6.82564 5.99001,-9.50065c4.62999,-1.61043 9.24991,-1.60228 13.6844,0.49402z" fill="#000000"/><path d="M239.52257,134.94719c4.48073,1.86888 7.32774,4.4736 9.53462,8.79358c2.42362,6.20211 2.48441,12.12639 0.19761,18.3776c-1.80657,3.95663 -3.77915,7.20864 -7.60793,9.48521c-3.71423,0.86377 -6.98784,1.0712 -10.57206,-0.34582c-4.7111,-3.94714 -7.08429,-8.6741 -7.62646,-14.81447c-0.25725,-11.55232 -0.25725,-11.55232 3.42727,-15.96307c3.98615,-4.02166 6.7723,-6.18578 12.64695,-5.53304z" fill="#540902"/><path d="M292.48167,134.94719c4.94217,2.23796 7.14655,6.38876 9.48521,11.06608c0.60412,8.56658 0.19023,14.83765 -4.74261,22.08276c-2.56514,2.6453 -4.88749,3.46806 -8.54657,3.60636c-3.77072,-0.09441 -5.80487,-0.97628 -8.47247,-3.61871c-4.29131,-5.61523 -5.64584,-11.99345 -5.11312,-18.90867c1.01256,-5.64805 3.76988,-9.53206 7.90434,-13.43738c2.93998,-1.46999 6.27656,-1.13157 9.48521,-0.79043z" fill="#530702"/><path d="M135.58044,284.30842c5.39923,1.6029 9.86615,6.09318 12.74575,10.89935c1.97665,4.69689 2.0943,10.62807 0.48167,15.44126c-1.43988,2.6912 -3.12532,4.54492 -5.7183,6.09808c-4.19854,0.93844 -7.71626,1.034 -11.85652,0c-3.2364,-3.03001 -5.10881,-6.31061 -7.11391,-10.27565c-0.44527,-0.8457 -0.89054,-1.69141 -1.3493,-2.56274c-1.21883,-2.59967 -1.43626,-4.08189 -1.02201,-6.92248c1.74075,-3.48149 4.34195,-6.17723 6.9657,-9.04059c0.96135,-1.05 0.96135,-1.05 1.94212,-2.1212c2.15826,-1.48515 2.15826,-1.48515 4.92478,-1.51603z" fill="#e78d31"/><path d="M248.21735,21.66806c0.63784,-0.02293 1.27569,-0.04585 1.93286,-0.06947c4.68676,-0.05027 4.68676,-0.05027 7.20345,1.81707c1.13934,1.66115 1.13934,1.66115 1.18874,3.19261c-4.34688,8.43806 -16.34855,13.03427 -24.82458,16.00321c-2.83535,0.87145 -5.46642,1.30434 -8.42307,1.43575c-0.72955,0.04076 -1.45909,0.08151 -2.21075,0.12351c-6.59984,0.20952 -6.59984,0.20952 -9.64577,-2.49481c0.18487,-3.14271 0.40973,-5.04526 2.3713,-7.55853c9.36634,-7.61015 20.25838,-12.30378 32.40781,-12.44934z" fill="#c6d22c"/><path d="M243.47474,294.61494c1.87728,0.0988 1.87728,0.0988 3.95217,0.79043c1.81535,2.62114 2.98312,5.30621 4.05098,8.29956c0.26288,0.72547 0.52576,1.45094 0.79661,2.1984c1.32148,4.14301 1.57919,7.94406 1.52529,12.27643c-0.00357,0.54767 -0.00713,1.09534 -0.01081,1.6596c-0.00925,1.34058 -0.02342,2.68112 -0.0386,4.02164c0.66026,-0.04127 0.66026,-0.04127 1.33386,-0.08337c5.71685,-0.20279 9.84791,0.72696 14.42543,4.23315c1.95387,2.60516 2.23161,4.49206 2.42071,7.70674c-4.52492,2.96433 -8.89232,2.72542 -14.17842,2.66772c-0.83704,0.00917 -1.67408,0.01834 -2.53649,0.02779c-9.87261,-0.03695 -9.87261,-0.03695 -13.3216,-3.48594c0.19761,-2.66772 0.19761,-2.66772 0.79043,-5.53304c0.3984,-0.31281 0.79679,-0.62562 1.20727,-0.9479c1.93243,-2.36299 1.4762,-5.17739 1.41105,-8.09269c-0.00777,-0.636 -0.01554,-1.27199 -0.02354,-1.92726c-0.1244,-5.82054 -0.43189,-11.77636 -2.66579,-17.21298c-0.88109,-2.27267 -0.63208,-3.5068 0.07102,-5.80784c0.26084,-0.26084 0.52169,-0.52169 0.79043,-0.79043z" fill="#020100"/><path d="M256.91213,28.23855c0.26084,0 0.52169,0 0.79043,0c0.12533,0.91703 0.25065,1.83405 0.37978,2.77887c2.1682,14.92119 7.79815,24.66804 17.80021,35.95242c-1.95633,3.91265 -1.95633,3.91265 -3.95217,7.90434c-4.03139,-0.80628 -5.66067,-1.90238 -8.49717,-4.5944c-0.41222,-0.38668 -0.82443,-0.77336 -1.24914,-1.17176c-6.59372,-6.35257 -11.4145,-13.37855 -14.75716,-21.89905c-0.25167,-0.59709 -0.50335,-1.19417 -0.76265,-1.80935c-1.18309,-2.91138 -2.0764,-5.33143 -1.60866,-8.46629c1.59013,-1.28446 1.59013,-1.28446 3.70516,-2.3713c3.31202,-1.81082 5.62384,-3.55136 8.15135,-6.32348z" fill="#5e8a42"/><path d="M279.83472,174.46891c1.04337,0.26084 2.08675,0.52169 3.16174,0.79043c-0.19761,1.43266 -0.19761,1.43266 -0.79043,3.16174c-0.7703,0.48908 -0.7703,0.48908 -1.55617,0.98804c-2.21523,1.90851 -2.22504,3.41764 -2.59361,6.27407c-0.11819,0.85895 -0.23639,1.7179 -0.35817,2.60288c-0.07744,0.6572 -0.15488,1.31441 -0.23466,1.99152c-0.70713,-0.04585 -1.41426,-0.0917 -2.14282,-0.13894c-6.53868,-0.24398 -11.4863,0.09699 -16.82761,4.09112c-2.03254,1.98126 -3.83172,4.05317 -5.53304,6.32348c-5.18563,-4.60945 -7.2607,-9.53518 -8.22855,-16.36446c-0.36127,-1.89525 -0.36127,-1.89525 -1.6982,-3.43345c-1.13934,-1.54382 -1.13934,-1.54382 -1.13934,-4.70555c1.04337,0 2.08675,0 3.16174,0c0.48908,0.6195 0.97816,1.23901 1.48206,1.87728c2.06517,2.55109 3.2681,2.85067 6.42228,3.65576c2.08189,0.16768 4.04808,0.26392 6.12587,0.24701c0.55569,-0.00331 1.11139,-0.00662 1.68392,-0.01003c6.78036,-0.14628 12.00299,-1.7962 17.48412,-5.77002c0.52169,0 1.04337,0 1.58087,0c0,-0.52169 0,-1.04337 0,-1.58087z" fill="#7a0301"/><path d="M200.79128,323.07058c0.21194,0.71732 0.42387,1.43464 0.64223,2.17369c0.77525,2.53576 0.77525,2.53576 2.2231,4.19918c1.08685,1.53147 1.08685,1.53147 1.43266,3.55695c-0.34582,1.92668 -0.34582,1.92668 -1.72908,3.30994c-4.46728,2.48182 -9.40558,1.92374 -14.37603,1.92668c-1.28613,0.01452 -1.28613,0.01452 -2.59824,0.02933c-0.82889,0.00153 -1.65778,0.00306 -2.51179,0.00463c-0.75394,0.00325 -1.50787,0.0065 -2.28466,0.00984c-2.33708,-0.2097 -4.01559,-0.68296 -6.0921,-1.77288c-0.95912,-2.69754 -1.02083,-4.13782 0,-6.8175c6.03506,-7.16663 16.59636,-6.9198 25.2939,-6.61989z" fill="#010100"/><path d="M275.88255,189.48717c0.79043,2.3713 0.79043,2.3713 0.31494,3.84719c-2.27632,4.46575 -4.78193,7.5621 -9.00972,10.38063c-2.34043,0.23775 -2.34043,0.23775 -5.03902,0.24701c-1.32969,0.01987 -1.32969,0.01987 -2.68624,0.04014c-2.76508,-0.31132 -4.25496,-1.06325 -6.50256,-2.65845c1.08265,-4.46593 4.37017,-6.8589 7.90434,-9.48521c4.86685,-2.90139 9.52225,-2.61497 15.01825,-2.3713z" fill="#ed5c54"/><path d="M135.18523,284.19109c5.19162,0.91425 9.13379,5.62607 12.27335,9.56858c2.7504,4.59052 2.61389,9.9067 1.95447,15.08309c-1.13444,3.38595 -3.07678,6.281 -6.32348,7.90434c-2.56891,0.14821 -2.56891,0.14821 -4.74261,0c0.21907,-0.42897 0.43814,-0.85793 0.66384,-1.29989c0.42947,-0.84825 0.42947,-0.84825 0.86763,-1.71364c0.42642,-0.83908 0.42642,-0.83908 0.86145,-1.69511c2.17266,-4.56346 2.19184,-9.30855 1.55926,-14.26178c-1.85212,-3.66694 -4.98929,-6.19412 -8.69478,-7.90434c-2.12828,-0.55861 -2.12828,-0.55861 -3.95217,-0.79043c2.18472,-4.68154 2.18472,-4.68154 5.53304,-4.89081z" fill="#962d1c"/><path d="M279.83472,174.46891c1.04337,0.26084 2.08675,0.52169 3.16174,0.79043c-0.27312,2.25452 -0.67883,3.05862 -2.37439,4.62528c-0.66739,0.46259 -1.33478,0.92518 -2.0224,1.40179c-0.65313,0.46667 -1.30625,0.93333 -1.97917,1.41414c-5.54981,3.0003 -11.16522,3.12245 -17.33707,3.13086c-0.74789,0.01936 -1.49577,0.03872 -2.26632,0.05867c-4.9439,0.02054 -8.62112,-0.71506 -12.75193,-3.51682c-1.58087,-1.58087 -1.58087,-1.58087 -2.3713,-3.16174c0,-1.04337 0,-2.08675 0,-3.16174c1.04337,0 2.08675,0 3.16174,0c0.48908,0.6195 0.97816,1.23901 1.48206,1.87728c2.06517,2.55109 3.2681,2.85067 6.42228,3.65576c2.08189,0.16768 4.04808,0.26392 6.12587,0.24701c0.55569,-0.00331 1.11139,-0.00662 1.68392,-0.01003c6.78036,-0.14628 12.00299,-1.7962 17.48412,-5.77002c0.52169,0 1.04337,0 1.58087,0c0,-0.52169 0,-1.04337 0,-1.58087z" fill="#550900"/><path d="M275.88255,116.7672c7.74756,0.43042 14.51012,3.0714 20.55129,7.90434c-0.26084,1.30422 -0.52169,2.60843 -0.79043,3.95217c-1.28446,0.59283 -1.28446,0.59283 -3.16174,0.79043c-1.60293,-1.02005 -3.18047,-2.08026 -4.74261,-3.16174c-3.04994,-1.379 -6.21586,-2.36318 -9.43581,-3.26054c-2.42071,-0.69163 -2.42071,-0.69163 -3.21114,-1.48206c-0.0988,-1.97609 -0.0988,-1.97609 0,-3.95217c0.26084,-0.26084 0.52169,-0.52169 0.79043,-0.79043z" fill="#5a1000"/><path d="M293.27211,142.0611c1.92668,0.83984 1.92668,0.83984 3.16174,2.3713c0.44462,2.66772 0.44462,2.66772 0,5.53304c-1.80687,2.42636 -2.9681,3.70615 -5.92826,4.44619c-2.93144,-0.73286 -4.11805,-2.06706 -5.92826,-4.44619c-0.53493,-2.9124 -0.39357,-4.14438 1.23505,-6.61989c2.64822,-1.76548 4.33604,-1.67492 7.45972,-1.28446z" fill="#f7f4f3"/><path d="M238.73213,142.0611c1.92668,0.83984 1.92668,0.83984 3.16174,2.3713c0.44462,2.66772 0.44462,2.66772 0,5.53304c-1.80687,2.42636 -2.9681,3.70615 -5.92826,4.44619c-2.93144,-0.73286 -4.11805,-2.06706 -5.92826,-4.44619c-0.53493,-2.9124 -0.39357,-4.14438 1.23505,-6.61989c2.64822,-1.76548 4.33604,-1.67492 7.45972,-1.28446z" fill="#f7f4f3"/><path d="M241.10344,119.13851c0.26084,1.30422 0.52169,2.60843 0.79043,3.95217c-0.78253,0.44017 -0.78253,0.44017 -1.58087,0.88924c-3.6459,2.27868 -7.2294,4.75929 -10.27565,7.80554c-2.07489,-0.29641 -2.07489,-0.29641 -3.95217,-0.79043c-0.20996,-1.76921 -0.20996,-1.76921 0,-3.95217c1.44501,-1.71364 1.44501,-1.71364 3.35935,-3.30994c0.93537,-0.79934 0.93537,-0.79934 1.88963,-1.61483c3.40167,-2.55125 5.48809,-3.17417 9.76928,-2.97957z" fill="#580d00"/><path d="M290.9008,127.83328c1.87728,0.49402 1.87728,0.49402 3.95217,1.58087c1.15012,2.4048 1.70296,3.96936 1.28446,6.61989c-0.16303,0.42387 -0.32605,0.84774 -0.49402,1.28446c-0.39127,-0.24454 -0.78253,-0.48908 -1.18565,-0.74103c-2.75061,-1.16901 -5.32775,-1.33309 -8.29956,-1.63027c0,-0.26084 0,-0.52169 0,-0.79043c1.8259,0 3.65181,0 5.53304,0c-0.26084,-2.08675 -0.52169,-4.17349 -0.79043,-6.32348z" fill="#eea512"/><path d="M286.94863,106.49155c3.73356,4.26692 4.95943,9.51159 5.53304,15.01825c-1.30422,-0.26084 -2.60843,-0.52169 -3.95217,-0.79043c0.26084,-0.52169 0.52169,-1.04337 0.79043,-1.58087c-0.32508,-1.70724 -0.71342,-3.40273 -1.13625,-5.08842c-1.23505,-4.95683 -1.23505,-4.95683 -1.23505,-7.55853z" fill="#f6a915"/><path d="M184.98259,292.24364c1.58087,0.79043 1.58087,0.79043 2.3713,2.3713c-1.51246,0.42092 -3.0281,0.83043 -4.545,1.23505c-0.84367,0.22926 -1.68733,0.45851 -2.55656,0.69472c-2.25984,0.4186 -3.42384,0.42865 -5.54539,-0.3489c1.26765,-0.51134 2.53572,-1.02163 3.80397,-1.53147c1.05917,-0.42642 1.05917,-0.42642 2.13973,-0.86145c1.42876,-0.56025 2.87603,-1.07395 4.33195,-1.55926z" fill="#fab313"/></g></g></svg>