<svg version="1.1" xmlns="http://www.w3.org/2000/svg" xmlns:xlink="http://www.w3.org/1999/xlink" width="111.05982" height="108.72476" viewBox="0,0,111.05982,108.72476"><g transform="translate(-184.47009,-125.63762)"><g data-paper-data="{&quot;isPaintingLayer&quot;:true}" stroke="none" stroke-linecap="butt" stroke-linejoin="miter" stroke-miterlimit="10" stroke-dasharray="" stroke-dashoffset="0" style="mix-blend-mode: normal"><g fill-rule="evenodd" stroke-width="1"><path d="M284.69414,232.72904c-23.96145,0.49412 -41.12967,-10.8691 -48.91101,-25.93765c-9.51048,-18.52683 -4.8169,-54.716 18.8975,-57.6803c0.12346,-2.09966 1.11156,-10.8691 2.47018,-16.7977l7.78134,-3.33482c4.32292,4.19946 5.9286,14.08046 -1.35862,22.60284c2.8407,1.11156 6.54618,6.29912 5.18742,12.22772c-2.59364,11.11616 -6.05206,20.87355 -0.8645,32.60729c4.19946,9.38688 16.18012,14.20392 23.34387,22.23217c8.7693,9.75754 2.8407,13.70994 -6.54618,14.08046z" fill="#272525"/><path d="M261.72078,131.07822c2.47032,1.48222 5.31102,4.9405 5.06396,7.78134c-0.61744,0.74104 -6.66964,13.33942 -4.56984,14.45098c5.31102,2.71724 -2.59378,23.34387 0.37052,36.55969c4.07586,18.27977 19.88545,22.35577 26.18457,32.73075c3.45842,5.68168 -2.8407,7.16376 -4.69344,7.16376c-28.77835,-0.49398 -40.26503,-16.05666 -44.95861,-25.69059c-6.17552,-12.59824 -2.34672,-28.16077 2.9643,-40.38863c1.1117,-2.47018 3.9524,-7.04016 5.9286,-8.8929c3.21136,-2.71724 3.9524,-2.9643 8.15186,-3.33482c0.61758,-0.12346 5.55808,-20.37958 5.55808,-20.37958z" fill="#fff63b"/><path d="M256.78028,155.78072c0.24706,-0.8645 1.48222,-0.49398 1.23516,0.24706c-7.53428,25.07301 -4.32292,48.66395 12.8453,61.01512c3.58188,2.59378 10.74549,5.68168 12.35117,6.29926c1.72928,0.61744 0.37052,1.60554 -1.23502,1.11156c-1.48222,-0.49412 -2.71738,-0.9881 -4.9405,-1.9762c-18.52698,-8.39892 -34.08951,-22.10871 -20.25612,-66.6968z" fill="#272525"/></g><g fill-rule="evenodd" stroke-width="1"><path d="M259.00354,149.97572c2.47018,1.8526 4.19946,8.15186 0.74104,13.33927c-6.42258,9.63408 -13.09236,17.66234 -12.47478,30.38417c0.49412,10.12791 10.0046,18.65029 13.957,28.53129c4.69344,12.10426 -2.34686,13.8334 -11.36322,10.8691c-22.60284,-7.41068 -34.70695,-23.71439 -36.68315,-40.38849c-2.34672,-20.50318 14.94495,-52.86341 38.41229,-47.92291c1.35862,-2.9643 9.881,-19.51493 12.47478,-19.14441c7.16376,0.9881 10.8691,17.7858 -5.06396,24.33197z" fill="#272525"/><path d="M264.68508,130.09012c2.71724,1.23516 4.69344,3.9524 1.9762,9.0165c-1.72914,3.21136 -11.11616,10.37498 -9.51048,12.10426c4.076,4.32292 -10.74549,21.12061 -12.72169,34.45989c-2.59378,18.52683 10.74549,27.54333 12.96875,39.27693c1.23516,6.42272 -5.18756,5.80514 -6.9167,5.18756c-26.80215,-9.881 -32.11331,-28.28437 -33.10141,-38.90641c-1.23502,-13.95685 7.78134,-27.17267 17.16836,-37.05367c1.8526,-1.9762 6.17552,-5.43462 8.7693,-6.42272c3.9524,-1.60568 3.82894,-4.07586 7.9048,-2.9643c0.61758,0.24706 13.46288,-14.69804 13.46288,-14.69804z" fill="#fff63b"/><path d="M251.22221,151.82832c0.61758,-0.74104 1.60568,0 1.1117,0.61758c-16.05666,21.12061 -21.36767,44.21757 -9.75754,61.6327c2.47018,3.70548 8.02826,8.8929 9.38688,9.881c1.35876,1.1117 -0.74104,2.71738 -1.9762,1.72928c-1.23502,-0.9881 -3.08776,-2.34672 -4.69344,-3.9524c-14.45098,-14.20392 -22.97335,-32.60729 5.9286,-69.90816z" fill="#272525"/></g><g fill-rule="evenodd" stroke-width="1"><path d="M250.23411,146.76436c0.86464,2.9643 -0.8645,8.64584 -6.05206,11.48668c-10.37512,5.80514 -18.65044,10.62204 -24.33197,22.23217c-4.44652,9.26356 -1.85274,20.13266 -3.21136,30.63109c-1.72914,12.8453 -11.98066,9.75754 -18.52683,3.0879c-16.42718,-16.67424 -15.93305,-35.07761 -9.38702,-50.64015c8.0284,-19.14441 39.15347,-40.01797 57.43339,-25.07301c2.59378,-1.9762 18.15631,-12.8453 20.37958,-11.36322c5.805,4.076 0.37052,20.62664 -16.30372,19.63854z" fill="#272525"/><path d="M264.80854,131.44889c0.61758,2.71724 -0.24692,7.04016 -2.71724,8.8929c-2.22326,1.60554 -9.75739,4.69344 -14.08046,5.06396c1.48222,5.68154 -20.00891,15.19202 -28.28423,26.06111c-11.36322,15.06856 -4.076,29.14901 -7.9048,40.51209c-2.0998,6.17566 -7.41082,2.84084 -8.64598,1.35862c-18.77389,-20.75009 -14.45098,-39.52399 -10.12791,-49.28138c5.68154,-12.8453 20.25597,-20.50318 33.22473,-24.94955c2.59378,-0.86464 8.15186,-1.9762 10.8691,-1.72914c4.32306,0.37052 5.0641,0.8645 8.0284,3.58174c0.61758,0.49412 19.14441,-11.8572 19.63839,-9.51033z" fill="#fff63b"/><path d="M242.20585,144.5411c0.8645,-0.37052 1.35862,0.74118 0.74104,0.9881c-24.45543,11.36322 -40.63555,29.39608 -38.78295,50.02257c0.37052,4.32292 2.71738,11.36322 3.45842,12.9689c0.74104,1.60554 -1.1117,1.35862 -1.60568,-0.1236c-0.61758,-1.48208 -1.11156,-2.59378 -1.72914,-4.8169c-5.9286,-18.8975 -5.80514,-39.15347 37.91831,-59.03907z" fill="#272525"/></g><path d="M247.67403,192.07863c0,-0.99452 0.80622,-1.80074 1.80074,-1.80074c0.99452,0 1.80074,0.80622 1.80074,1.80074c0,0.99452 -0.80622,1.80074 -1.80074,1.80074c-0.99452,0 -1.80074,-0.80622 -1.80074,-1.80074z" fill="#000000" fill-rule="nonzero" stroke-width="0.5"/><path d="M249.10269,198.50761c0,-0.99452 0.80622,-1.80074 1.80074,-1.80074c0.99452,0 1.80074,0.80622 1.80074,1.80074c0,0.99452 -0.80622,1.80074 -1.80074,1.80074c-0.99452,0 -1.80074,-0.80622 -1.80074,-1.80074z" fill="#000000" fill-rule="nonzero" stroke-width="0.5"/><path d="M198.38517,161.71955c0,-0.99452 0.80622,-1.80074 1.80074,-1.80074c0.99452,0 1.80074,0.80622 1.80074,1.80074c0,0.99452 -0.80622,1.80074 -1.80074,1.80074c-0.99452,0 -1.80074,-0.80622 -1.80074,-1.80074z" fill="#000000" fill-rule="nonzero" stroke-width="0.5"/><path d="M206.59998,156.0049c0,-0.99452 0.80622,-1.80074 1.80074,-1.80074c0.99452,0 1.80074,0.80622 1.80074,1.80074c0,0.99452 -0.80622,1.80074 -1.80074,1.80074c-0.99452,0 -1.80074,-0.80622 -1.80074,-1.80074z" fill="#000000" fill-rule="nonzero" stroke-width="0.5"/><path d="M223.74393,184.57815c0,-0.99452 0.80622,-1.80074 1.80074,-1.80074c0.99452,0 1.80074,0.80622 1.80074,1.80074c0,0.99452 -0.80622,1.80074 -1.80074,1.80074c-0.99452,0 -1.80074,-0.80622 -1.80074,-1.80074z" fill="#000000" fill-rule="nonzero" stroke-width="0.5"/><path d="M226.95842,176.00617c0,-0.99452 0.80622,-1.80074 1.80074,-1.80074c0.99452,0 1.80074,0.80622 1.80074,1.80074c0,0.99452 -0.80622,1.80074 -1.80074,1.80074c-0.99452,0 -1.80074,-0.80622 -1.80074,-1.80074z" fill="#000000" fill-rule="nonzero" stroke-width="0.5"/></g></g></svg>