<?xml version="1.0" encoding="UTF-8"?>
<svg version="1.1" xmlns="http://www.w3.org/2000/svg" width="51" height="53">
<path d="M0 0 C4.23197056 3.45279908 6.29168769 5.96589093 7.6015625 11.390625 C7.82025185 20.36730203 7.09609031 29.02246524 1.3515625 36.203125 C-6.74192864 42.64112932 -16.43520388 43.24496025 -26.3984375 42.390625 C-30.99761825 41.12512715 -33.68420572 39.19642495 -36.8359375 35.640625 C-38.67082294 31.82406329 -39.65681982 28.64143086 -39.3984375 24.390625 C-38.9034375 23.2975 -38.4084375 22.204375 -37.8984375 21.078125 C-36.32768198 17.21668435 -36.375753 15.88153894 -36.8984375 11.890625 C-37.54595273 6.57954503 -37.23105774 3.95936732 -34.3984375 -0.609375 C-25.28372811 -10.38604652 -10.14879221 -6.80993875 0 0 Z " fill="#FFFEFE" transform="translate(41.3984375,8.609375)"/>
<path d="M0 0 C3.00981982 1.87460242 4.65744641 3.73619216 5.82421875 7.04296875 C5.7578125 10.5390625 5.7578125 10.5390625 5.26171875 14.48046875 C5.11605469 15.77855469 4.97039063 17.07664062 4.8203125 18.4140625 C3.65747187 22.65045051 2.21491933 24.31511189 -1.17578125 27.04296875 C-4.38070783 28.11127761 -7.1878544 28.43419259 -10.55078125 28.73046875 C-11.67226563 28.83746094 -12.79375 28.94445313 -13.94921875 29.0546875 C-17.28759485 29.04256265 -19.24036294 28.58601165 -22.17578125 27.04296875 C-24.11328125 24.79296875 -24.11328125 24.79296875 -25.17578125 22.04296875 C-24.4343492 18.87503183 -23.22067179 16.146217 -21.92578125 13.16796875 C-21.03275554 9.44702829 -21.72776041 7.45236692 -22.7734375 3.87109375 C-23.17578125 2.04296875 -23.17578125 2.04296875 -22.61328125 -0.33203125 C-16.96966859 -6.7117673 -6.7000719 -2.94706933 0 0 Z " fill="#FFE401" transform="translate(35.17578125,13.95703125)"/>
<path d="M0 0 C10.79367067 0.60779893 10.79367067 0.60779893 15 4 C15.33 4.66 15.66 5.32 16 6 C15 8 15 8 12 10 C12.99 11.32 13.98 12.64 15 14 C13.25 17.875 13.25 17.875 11 19 C8.62597499 19.07116382 6.24999323 19.08409085 3.875 19.0625 C2.59367187 19.05347656 1.31234375 19.04445313 -0.0078125 19.03515625 C-1.48894531 19.01775391 -1.48894531 19.01775391 -3 19 C-2.01 18.67 -1.02 18.34 0 18 C0.04898437 17.26394531 0.09796875 16.52789062 0.1484375 15.76953125 C0.22320313 14.79371094 0.29796875 13.81789063 0.375 12.8125 C0.44460937 11.84957031 0.51421875 10.88664062 0.5859375 9.89453125 C1.00215853 6.98491062 1.79874096 4.67109226 3 2 C2.01 1.67 1.02 1.34 0 1 C0 0.67 0 0.34 0 0 Z " fill="#FFFEFA" transform="translate(19,17)"/>
<path d="M0 0 C3.4375 1.25 3.4375 1.25 7 3 C7.9375 5.1875 7.9375 5.1875 8 7 C4.62902617 8.49821059 2.79557881 9 -1 9 C-0.67 6.03 -0.34 3.06 0 0 Z " fill="#FFE401" transform="translate(23,26)"/>
<path d="M0 0 C1.98 0.66 3.96 1.32 6 2 C6 2.99 6 3.98 6 5 C3.69 5 1.38 5 -1 5 C-0.67 3.35 -0.34 1.7 0 0 Z " fill="#FFE509" transform="translate(25,19)"/>
</svg>
